<svg width="73" height="72" viewBox="0 0 73 72" fill="none" xmlns="http://www.w3.org/2000/svg">
<g clip-path="url(#clip0_37_296)">
<path d="M35.8225 0.660047C45.3232 0.484992 54.5031 4.02139 61.3426 10.4913C68.1821 16.9611 72.121 25.8345 72.2928 35.1594C72.4647 44.4842 68.8553 53.4967 62.2588 60.2141C55.6622 66.9316 46.6189 70.8038 37.1182 70.9788C27.6174 71.1539 18.4376 67.6175 11.5981 61.1476C4.75857 54.6777 0.819641 45.8043 0.647827 36.4795C0.476012 27.1546 4.08538 18.1422 10.6819 11.4247C17.2784 4.70727 26.3218 0.835103 35.8225 0.660047ZM20.7575 33.9107C20.1637 33.9217 19.5985 34.1637 19.1862 34.5835C18.7739 35.0034 18.5483 35.5666 18.5591 36.1495C18.5698 36.7323 18.816 37.2868 19.2435 37.6912C19.6709 38.0956 20.2447 38.3166 20.8385 38.3057L46.7785 37.8277L37.3384 47.4363C36.9256 47.8567 36.6997 48.4207 36.7104 49.0042C36.7212 49.5878 36.9677 50.1431 37.3957 50.548C37.8237 50.9528 38.3982 51.1741 38.9927 51.1632C39.5873 51.1522 40.1532 50.9099 40.566 50.4895L53.7565 37.0573C53.9612 36.8493 54.1222 36.6037 54.2301 36.3347C54.3381 36.0656 54.3909 35.7784 54.3856 35.4893C54.3803 35.2003 54.3169 34.9152 54.1991 34.6503C54.0813 34.3854 53.9114 34.1459 53.6992 33.9456L40.0228 21.0084C39.5948 20.6035 39.0203 20.3822 38.4258 20.3932C37.8312 20.4041 37.2653 20.6464 36.8525 21.0668C36.4397 21.4872 36.2138 22.0512 36.2246 22.6347C36.2353 23.2183 36.4818 23.7735 36.9098 24.1784L46.6975 33.4328L20.7575 33.9107Z" fill="white"/>
</g>
<defs>
<clipPath id="clip0_37_296">
<rect width="70.3307" height="71.6572" fill="white" transform="translate(1.29565 71.6389) rotate(-91.0556)"/>
</clipPath>
</defs>
</svg>
