<svg width="171" height="171" viewBox="0 0 171 171" fill="none" xmlns="http://www.w3.org/2000/svg">
<g filter="url(#filter0_d_83_116)">
<ellipse cx="80.6691" cy="80.2455" rx="74.7917" ry="74.9203" fill="url(#paint0_linear_83_116)"/>
<path d="M55.3333 86.3333H75.3333C76.2174 86.3333 77.0652 85.9821 77.6904 85.357C78.3155 84.7319 78.6667 83.8841 78.6667 83V56.3333C78.6667 55.4493 78.3155 54.6014 77.6904 53.9763C77.0652 53.3512 76.2174 53 75.3333 53H55.3333C54.4493 53 53.6014 53.3512 52.9763 53.9763C52.3512 54.6014 52 55.4493 52 56.3333V83C52 83.8841 52.3512 84.7319 52.9763 85.357C53.6014 85.9821 54.4493 86.3333 55.3333 86.3333ZM52 109.667C52 110.551 52.3512 111.399 52.9763 112.024C53.6014 112.649 54.4493 113 55.3333 113H75.3333C76.2174 113 77.0652 112.649 77.6904 112.024C78.3155 111.399 78.6667 110.551 78.6667 109.667V96.3333C78.6667 95.4493 78.3155 94.6014 77.6904 93.9763C77.0652 93.3512 76.2174 93 75.3333 93H55.3333C54.4493 93 53.6014 93.3512 52.9763 93.9763C52.3512 94.6014 52 95.4493 52 96.3333V109.667ZM85.3333 109.667C85.3333 110.551 85.6845 111.399 86.3096 112.024C86.9348 112.649 87.7826 113 88.6667 113H108.667C109.551 113 110.399 112.649 111.024 112.024C111.649 111.399 112 110.551 112 109.667V86.3333C112 85.4493 111.649 84.6014 111.024 83.9763C110.399 83.3512 109.551 83 108.667 83H88.6667C87.7826 83 86.9348 83.3512 86.3096 83.9763C85.6845 84.6014 85.3333 85.4493 85.3333 86.3333V109.667ZM88.6667 76.3333H108.667C109.551 76.3333 110.399 75.9821 111.024 75.357C111.649 74.7319 112 73.8841 112 73V56.3333C112 55.4493 111.649 54.6014 111.024 53.9763C110.399 53.3512 109.551 53 108.667 53H88.6667C87.7826 53 86.9348 53.3512 86.3096 53.9763C85.6845 54.6014 85.3333 55.4493 85.3333 56.3333V73C85.3333 73.8841 85.6845 74.7319 86.3096 75.357C86.9348 75.9821 87.7826 76.3333 88.6667 76.3333Z" fill="white"/>
</g>
<defs>
<filter id="filter0_d_83_116" x="0.877441" y="0.325195" width="169.583" height="169.841" filterUnits="userSpaceOnUse" color-interpolation-filters="sRGB">
<feFlood flood-opacity="0" result="BackgroundImageFix"/>
<feColorMatrix in="SourceAlpha" type="matrix" values="0 0 0 0 0 0 0 0 0 0 0 0 0 0 0 0 0 0 127 0" result="hardAlpha"/>
<feOffset dx="5" dy="5"/>
<feGaussianBlur stdDeviation="5"/>
<feComposite in2="hardAlpha" operator="out"/>
<feColorMatrix type="matrix" values="0 0 0 0 0 0 0 0 0 0 0 0 0 0 0 0 0 0 0.25 0"/>
<feBlend mode="normal" in2="BackgroundImageFix" result="effect1_dropShadow_83_116"/>
<feBlend mode="normal" in="SourceGraphic" in2="effect1_dropShadow_83_116" result="shape"/>
</filter>
<linearGradient id="paint0_linear_83_116" x1="22.8302" y1="37.2912" x2="133.175" y2="127.509" gradientUnits="userSpaceOnUse">
<stop stop-color="#F5AF19"/>
<stop offset="1" stop-color="#F12711"/>
</linearGradient>
</defs>
</svg>
