<svg width="31" height="8" viewBox="0 0 31 8" fill="none" xmlns="http://www.w3.org/2000/svg">
<path d="M27.1771 0.84375C28.1053 0.84375 28.9956 1.2125 29.652 1.86888C30.3083 2.52525 30.6771 3.41549 30.6771 4.34375C30.6771 5.27201 30.3083 6.16225 29.652 6.81862C28.9956 7.475 28.1053 7.84375 27.1771 7.84375C26.2488 7.84375 25.3586 7.475 24.7022 6.81862C24.0458 6.16225 23.6771 5.27201 23.6771 4.34375C23.6771 3.41549 24.0458 2.52525 24.7022 1.86888C25.3586 1.2125 26.2488 0.84375 27.1771 0.84375ZM15.5104 0.84375C16.4387 0.84375 17.3289 1.2125 17.9853 1.86888C18.6417 2.52525 19.0104 3.41549 19.0104 4.34375C19.0104 5.27201 18.6417 6.16225 17.9853 6.81862C17.3289 7.475 16.4387 7.84375 15.5104 7.84375C14.5822 7.84375 13.6919 7.475 13.0355 6.81862C12.3792 6.16225 12.0104 5.27201 12.0104 4.34375C12.0104 3.41549 12.3792 2.52525 13.0355 1.86888C13.6919 1.2125 14.5822 0.84375 15.5104 0.84375ZM3.84375 0.84375C4.77201 0.84375 5.66225 1.2125 6.31862 1.86888C6.975 2.52525 7.34375 3.41549 7.34375 4.34375C7.34375 5.27201 6.975 6.16225 6.31862 6.81862C5.66225 7.475 4.77201 7.84375 3.84375 7.84375C2.91549 7.84375 2.02525 7.475 1.36888 6.81862C0.712499 6.16225 0.34375 5.27201 0.34375 4.34375C0.34375 3.41549 0.712499 2.52525 1.36888 1.86888C2.02525 1.2125 2.91549 0.84375 3.84375 0.84375Z" fill="black" fill-opacity="0.5"/>
</svg>
