<svg width="53" height="56" viewBox="0 0 53 56" fill="none" xmlns="http://www.w3.org/2000/svg">
<path d="M26.4921 0C26.7345 0 26.9669 0.098333 27.1383 0.273367C27.3097 0.448401 27.4059 0.685798 27.4059 0.933333V5.6C27.4059 5.84754 27.3097 6.08493 27.1383 6.25997C26.9669 6.435 26.7345 6.53333 26.4921 6.53333C26.2498 6.53333 26.0174 6.435 25.846 6.25997C25.6746 6.08493 25.5784 5.84754 25.5784 5.6V0.933333C25.5784 0.685798 25.6746 0.448401 25.846 0.273367C26.0174 0.098333 26.2498 0 26.4921 0ZM10.9875 12.5517C11.0719 12.6405 11.1727 12.7113 11.2841 12.76C11.3955 12.8086 11.5153 12.8342 11.6364 12.8351C11.7576 12.8361 11.8777 12.8124 11.9899 12.7655C12.102 12.7186 12.2038 12.6493 12.2895 12.5618C12.3752 12.4743 12.443 12.3703 12.4889 12.2557C12.5349 12.1412 12.5581 12.0185 12.5572 11.8948C12.5563 11.771 12.5312 11.6487 12.4836 11.5349C12.436 11.4211 12.3666 11.3181 12.2797 11.2319L9.04798 7.93333C8.96353 7.84486 8.86272 7.7744 8.7514 7.72603C8.64008 7.67766 8.52046 7.65235 8.39949 7.65157C8.27852 7.65079 8.1586 7.67454 8.04669 7.72147C7.93477 7.76839 7.8331 7.83754 7.74756 7.92492C7.66202 8.01229 7.59431 8.11614 7.54837 8.23045C7.50243 8.34475 7.47917 8.46724 7.47993 8.5908C7.4807 8.71436 7.50548 8.83653 7.55284 8.95023C7.60019 9.06394 7.66918 9.1669 7.7558 9.25316L10.9875 12.5517ZM5.48248 26.1397L0.913557 26.1415C0.671206 26.1416 0.438805 26.24 0.26748 26.4151C0.0961547 26.5902 -6.05591e-05 26.8276 2.85972e-08 27.0751C6.06163e-05 27.3226 0.0963921 27.56 0.267803 27.735C0.439214 27.91 0.671663 28.0083 0.914014 28.0082H0.913557L5.48248 28.0063C5.60248 28.0063 5.7213 27.9821 5.83216 27.9352C5.94301 27.8883 6.04373 27.8195 6.12856 27.7328C6.21339 27.6461 6.28067 27.5432 6.32657 27.43C6.37246 27.3167 6.39607 27.1953 6.39604 27.0728C6.39601 26.9502 6.37234 26.8289 6.32639 26.7156C6.28044 26.6024 6.21311 26.4995 6.12824 26.4129C6.04336 26.3262 5.94261 26.2575 5.83173 26.2106C5.72086 26.1638 5.60203 26.1396 5.48203 26.1397H5.48248ZM42.0116 41.5817C41.9272 41.4928 41.8264 41.422 41.715 41.3734C41.6036 41.3247 41.4838 41.2991 41.3627 41.2982C41.2415 41.2973 41.1213 41.3209 41.0092 41.3679C40.8971 41.4148 40.7952 41.484 40.7096 41.5715C40.6239 41.659 40.5561 41.7631 40.5101 41.8776C40.4642 41.9921 40.441 42.1148 40.4419 42.2386C40.4428 42.3623 40.4678 42.4847 40.5155 42.5985C40.5631 42.7123 40.6324 42.8152 40.7194 42.9014L43.9511 46.2C44.0356 46.2885 44.1364 46.3589 44.2477 46.4073C44.359 46.4557 44.4786 46.481 44.5996 46.4818C44.7206 46.4825 44.8405 46.4588 44.9524 46.4119C45.0643 46.3649 45.166 46.2958 45.2515 46.2084C45.3371 46.121 45.4048 46.0172 45.4507 45.9029C45.4967 45.7886 45.5199 45.6661 45.5191 45.5425C45.5184 45.419 45.4936 45.2968 45.4462 45.1831C45.3989 45.0694 45.3299 44.9664 45.2433 44.8802L42.0116 41.5817ZM10.9875 41.5817L7.7558 44.8802C7.66918 44.9664 7.60019 45.0694 7.55284 45.1831C7.50548 45.2968 7.4807 45.419 7.47993 45.5425C7.47917 45.6661 7.50243 45.7886 7.54837 45.9029C7.59431 46.0172 7.66202 46.121 7.74756 46.2084C7.8331 46.2958 7.93477 46.3649 8.04669 46.4119C8.1586 46.4588 8.27852 46.4825 8.39949 46.4818C8.52046 46.481 8.64008 46.4557 8.7514 46.4073C8.86272 46.3589 8.96353 46.2885 9.04798 46.2L12.2797 42.9014C12.3666 42.8152 12.436 42.7123 12.4836 42.5985C12.5312 42.4847 12.5563 42.3623 12.5572 42.2386C12.5581 42.1148 12.5349 41.9921 12.4889 41.8776C12.443 41.7631 12.3752 41.659 12.2895 41.5715C12.2038 41.484 12.102 41.4148 11.9899 41.3679C11.8777 41.3209 11.7576 41.2973 11.6364 41.2982C11.5153 41.2991 11.3955 41.3247 11.2841 41.3734C11.1727 41.422 11.0719 41.4928 10.9875 41.5817ZM52.0855 26.1251L47.5166 26.127C47.2743 26.127 47.0418 26.2254 46.8705 26.4005C46.6992 26.5756 46.603 26.813 46.603 27.0606C46.6031 27.3081 46.6994 27.5455 46.8708 27.7205C47.0423 27.8954 47.2747 27.9937 47.5171 27.9937H47.5175L52.0864 27.9918C52.3288 27.9917 52.5612 27.8933 52.7325 27.7183C52.9038 27.5432 53.0001 27.3058 53 27.0582C52.9999 26.8107 52.9036 26.5733 52.7322 26.3983C52.5608 26.2233 52.3283 26.1251 52.086 26.1251H52.0855ZM41.3561 12.816C41.4762 12.8161 41.5951 12.7921 41.7061 12.7452C41.817 12.6982 41.9178 12.6294 42.0026 12.5426L45.2326 9.24131C45.4039 9.06616 45.5002 8.82867 45.5001 8.58106C45.5 8.33346 45.4036 8.09603 45.2321 7.92101C45.0607 7.74599 44.8281 7.64772 44.5857 7.6478C44.3433 7.64789 44.1109 7.74634 43.9395 7.92148L40.7096 11.2228C40.5818 11.3533 40.4948 11.5197 40.4596 11.7007C40.4244 11.8818 40.4425 12.0695 40.5117 12.24C40.5809 12.4105 40.6981 12.5563 40.8484 12.6588C40.9987 12.7613 41.1754 12.816 41.3561 12.816ZM40.5584 33.7075C41.8459 31.2132 42.4972 28.4276 42.452 25.6082C42.4069 22.7888 41.6667 20.0265 40.3 17.5765C39.0168 15.2208 37.1731 13.2334 34.9392 11.7979C32.7052 10.3624 30.1531 9.52502 27.5186 9.3632H27.5169C26.8386 9.32493 26.1588 9.32493 25.4805 9.3632C22.846 9.52502 20.2939 10.3624 18.0599 11.7979C15.826 13.2334 13.9823 15.2208 12.6991 17.5765C11.3324 20.0265 10.5922 22.7888 10.547 25.6082C10.5019 28.4276 11.1531 31.2132 12.4407 33.7075L18.2755 45.0304V49.4667C18.2774 51.1988 18.952 52.8594 20.1511 54.0842C21.3503 55.309 22.9761 55.998 24.672 56H28.3271C30.023 55.998 31.6488 55.309 32.848 54.0842C34.0471 52.8594 34.7216 51.1988 34.7236 49.4667V45.0304L40.5584 33.7075ZM20.103 48.5333V45.7333H32.896V48.5333H20.103ZM14.2902 18.4944C15.4103 16.4003 17.0358 14.6334 19.0124 13.3614C20.989 12.0894 23.2511 11.3545 25.5839 11.2264C26.1933 11.1918 26.804 11.1918 27.4133 11.2264C29.7465 11.3542 32.0089 12.089 33.9859 13.361C35.9628 14.633 37.5886 16.4001 38.7089 18.4944C39.9245 20.6727 40.583 23.1288 40.6236 25.6358C40.6642 28.1428 40.0857 30.6198 38.9414 32.838L33.2584 43.8667H27.4133V36.0727C27.897 36.1455 28.3848 36.1848 28.8736 36.1904C29.6623 36.229 30.4506 36.106 31.1921 35.8287C31.9336 35.5514 32.6132 35.1254 33.191 34.5757C36.0512 31.7156 35.0073 26.185 34.9615 25.9506C34.9384 25.8302 34.8921 25.7156 34.8255 25.6136C34.7588 25.5115 34.673 25.4239 34.573 25.3559C34.4731 25.2878 34.3609 25.2407 34.243 25.2171C34.1251 25.1936 34.0038 25.1941 33.8861 25.2187C29.9576 26.0213 27.6391 29.8264 26.4995 32.3716C25.36 29.8264 23.0415 26.0209 19.113 25.2187C18.9953 25.1942 18.874 25.1937 18.7561 25.2173C18.6383 25.2409 18.5261 25.2881 18.4262 25.3561C18.3262 25.4241 18.2405 25.5117 18.1738 25.6137C18.1071 25.7157 18.0608 25.8302 18.0376 25.9506C17.9919 26.1849 16.9481 31.7156 19.8081 34.5757C20.3858 35.1254 21.0655 35.5515 21.807 35.8288C22.5484 36.1061 23.3367 36.229 24.1254 36.1904C24.6142 36.1848 25.1021 36.1454 25.5858 36.0727V43.8667H19.7407L14.0577 32.838C12.9134 30.6198 12.3349 28.1428 12.3755 25.6358C12.4161 23.1288 13.0746 20.6727 14.2902 18.4944ZM27.7137 34.2407C28.4048 32.4133 30.1882 28.5651 33.3061 27.3292C33.4574 29.0345 33.3583 31.7953 31.9126 33.2418C30.9922 34.16 29.5831 34.4968 27.7141 34.2407H27.7137ZM25.2847 34.2407C23.4214 34.4978 22.0092 34.1615 21.0892 33.2445C19.5498 31.7087 19.5624 28.8532 19.6984 27.331C22.8127 28.5693 24.5943 32.4147 25.285 34.2407H25.2847ZM28.3271 54.1333H24.672C23.6192 54.1319 22.5992 53.7597 21.7838 53.0797C20.9683 52.3996 20.4074 51.4532 20.1954 50.4H32.8037C32.5917 51.4532 32.0308 52.3996 31.2153 53.0797C30.3999 53.7597 29.3798 54.1319 28.3271 54.1333Z" fill="black"/>
</svg>
