<svg width="171" height="171" viewBox="0 0 171 171" fill="none" xmlns="http://www.w3.org/2000/svg">
<g filter="url(#filter0_d_78_6)">
<ellipse cx="80.4889" cy="80.4857" rx="74.7917" ry="74.9203" fill="url(#paint0_linear_78_6)"/>
<path d="M88.7777 110.056L71.3189 114.376C70.075 114.684 68.7848 113.996 68.4515 112.847C68.1184 111.699 68.8632 110.507 70.1069 110.199L87.5657 105.879C88.8096 105.572 90.0998 106.259 90.4331 107.408C90.7666 108.557 90.0214 109.748 88.7777 110.056ZM80.6941 60.5085C80.5378 62.474 79.3339 63.5818 77.4649 63.5537C75.604 63.526 74.2497 62.3482 74.2943 60.5547C74.3377 58.8097 75.5224 57.6634 77.5379 57.6838C79.552 57.7038 80.5504 58.8029 80.6941 60.5085ZM103.077 53.8847C96.1312 43.2914 82.3751 38.1444 69.5953 41.5926C58.4113 44.6103 51.1191 51.4299 48.4676 61.918C45.8431 72.2988 49.1098 81.2275 57.3773 88.7051C59.3162 90.4588 61.0989 92.583 62.192 94.8498C63.2878 97.1218 63.6391 97.8323 66.3082 97.2358C70.0152 96.4074 73.6725 95.39 77.3787 94.5585C79.2787 94.1323 80.0006 93.1527 79.988 91.3839C79.9372 84.245 79.9543 77.1056 79.9824 69.9665C79.9885 68.3505 79.4386 67.0199 77.5558 66.9796C75.6499 66.9387 75.0664 68.2248 75.0824 69.8722C75.1265 74.5007 75.0957 79.1295 75.0953 83.7582C75.0952 91.2042 75.0953 91.2042 67.1672 92.274C64.1533 89.0848 61.4087 86.2179 58.7081 83.316C49.0155 72.901 50.788 57.5048 62.8851 49.5307C71.5761 43.8016 80.9122 43.4829 90.2204 48.3201C98.8632 52.8118 103.565 62.0657 102.319 71.0175C101.486 76.9976 98.3942 81.7712 93.8078 85.8747C91.0399 88.3512 88.5177 91.0175 87.6098 94.5984C87.1851 96.2733 86.1682 97.104 84.4113 97.5039C84.7396 97.2221 65.474 102.207 65.474 102.207C64.2552 102.509 63.5253 103.676 63.852 104.802L63.9022 104.976C64.2289 106.101 65.4931 106.775 66.712 106.474C66.712 106.474 88.8173 100.988 89.1071 100.913C91.1543 100.391 92.2684 99.0448 92.3151 97.1239C92.3848 94.2562 93.7341 92.0242 95.9298 90.1188C97.1053 89.0986 98.2756 88.0694 99.3818 86.9864C108.512 78.0435 110.019 64.4745 103.077 53.8847Z" fill="white"/>
</g>
<defs>
<filter id="filter0_d_78_6" x="0.697266" y="0.565369" width="169.583" height="169.841" filterUnits="userSpaceOnUse" color-interpolation-filters="sRGB">
<feFlood flood-opacity="0" result="BackgroundImageFix"/>
<feColorMatrix in="SourceAlpha" type="matrix" values="0 0 0 0 0 0 0 0 0 0 0 0 0 0 0 0 0 0 127 0" result="hardAlpha"/>
<feOffset dx="5" dy="5"/>
<feGaussianBlur stdDeviation="5"/>
<feComposite in2="hardAlpha" operator="out"/>
<feColorMatrix type="matrix" values="0 0 0 0 0 0 0 0 0 0 0 0 0 0 0 0 0 0 0.25 0"/>
<feBlend mode="normal" in2="BackgroundImageFix" result="effect1_dropShadow_78_6"/>
<feBlend mode="normal" in="SourceGraphic" in2="effect1_dropShadow_78_6" result="shape"/>
</filter>
<linearGradient id="paint0_linear_78_6" x1="144.81" y1="113.076" x2="17.9338" y2="42.0877" gradientUnits="userSpaceOnUse">
<stop stop-color="#045DE9"/>
<stop offset="1" stop-color="#09C6F9"/>
</linearGradient>
</defs>
</svg>
