<svg width="171" height="171" viewBox="0 0 171 171" fill="none" xmlns="http://www.w3.org/2000/svg">
<g filter="url(#filter0_d_78_3)">
<ellipse cx="80.6554" cy="80.7152" rx="74.7917" ry="74.9203" fill="url(#paint0_linear_78_3)"/>
<mask id="path-2-inside-1_78_3" fill="white">
<path d="M80.3168 96.5349C85.9422 96.6131 90.0044 92.3022 90.0044 87.7121V87.2575C90.8734 85.6049 91.39 83.8183 91.39 82.1061C91.39 77.1551 87.2495 74.079 80.5832 74.079C73.9175 74.079 69.777 77.1552 69.777 82.1061C69.777 83.8247 70.2934 85.6216 71.1665 87.2815V88.0242C71.1664 92.6277 75.2075 96.409 80.3168 96.5349ZM87.4128 87.7121C87.4128 91.2291 84.2026 94.3141 80.3871 94.1938C76.6889 94.1044 73.7582 91.3661 73.7582 88.0243V85.9918C73.7582 84.724 74.8997 83.6918 76.3031 83.6918H84.8681C86.2716 83.6918 87.413 84.7241 87.413 85.9918V87.7121H87.4128ZM80.5832 76.42C83.0533 76.42 88.7984 76.9745 88.7984 82.1061C88.7984 82.3881 88.766 82.6765 88.7302 82.9651C87.7878 81.9845 86.4149 81.3504 84.868 81.3504H76.3029C74.7582 81.3504 73.3869 81.9827 72.4444 82.9612C72.4097 82.6746 72.3687 82.3864 72.3687 82.1061C72.3686 76.9745 78.113 76.42 80.5832 76.42ZM80.1567 98.1789C69.789 98.1789 61.3542 104.248 61.3542 111.707V112.495C61.3542 112.916 61.6047 113.305 62.0104 113.513C72.7744 119.03 87.4089 119.097 98.3019 113.513C98.7081 113.305 98.9588 112.916 98.9588 112.495V111.707C98.9586 103.532 89.5573 98.1789 80.1567 98.1789ZM96.3671 111.803C86.6259 116.511 73.6916 116.514 63.9459 111.803V111.707C63.9459 105.538 71.2184 100.52 80.1567 100.52C88.0961 100.52 96.3669 104.903 96.3669 111.707V111.803H96.3671ZM102.774 86.5553C102.774 88.9604 104.939 90.9163 107.601 90.9163C110.264 90.9163 112.429 88.9604 112.429 86.5553V84.828C112.429 82.4228 110.264 80.467 107.601 80.467C104.939 80.467 102.774 82.4228 102.774 84.828V86.5553ZM105.366 84.828C105.366 83.7146 106.369 82.8081 107.602 82.8081C108.834 82.8081 109.838 83.7146 109.838 84.828V86.5553C109.838 87.6686 108.834 88.5752 107.602 88.5752C106.369 88.5752 105.366 87.6686 105.366 86.5553V84.828ZM107.596 91.8012C102.112 91.8012 97.6501 95.8365 97.6501 100.796C97.6501 101.248 97.9387 101.66 98.3904 101.853C104.499 104.469 110.7 104.471 116.813 101.853C117.264 101.66 117.553 101.248 117.553 100.796C117.553 95.8365 113.086 91.8012 107.596 91.8012ZM100.286 100.058C100.694 96.735 103.817 94.1423 107.596 94.1423C111.381 94.1423 114.509 96.735 114.917 100.058C110.002 101.965 105.201 101.965 100.286 100.058ZM52.7119 90.9163C55.3737 90.9163 57.5395 88.9604 57.5395 86.5553V84.828C57.5395 82.4228 55.3737 80.467 52.7119 80.467C50.0501 80.467 47.8843 82.4228 47.8843 84.828V86.5553C47.8843 88.9604 50.0501 90.9163 52.7119 90.9163ZM50.4758 84.828C50.4758 83.7146 51.4788 82.8081 52.7119 82.8081C53.945 82.8081 54.9479 83.7146 54.9479 84.828V86.5553C54.9479 87.6686 53.945 88.5752 52.7119 88.5752C51.4788 88.5752 50.4758 87.6686 50.4758 86.5553V84.828ZM62.6627 100.795C62.6627 95.8365 58.1963 91.8011 52.7069 91.8011C47.2231 91.8011 42.7612 95.8363 42.7612 100.795C42.7612 101.248 43.0498 101.66 43.5022 101.853C49.6092 104.469 55.8109 104.471 61.9218 101.853C62.3742 101.66 62.6627 101.248 62.6627 100.795ZM45.3978 100.058C45.8046 96.735 48.9271 94.1423 52.707 94.1423C56.492 94.1423 59.6188 96.735 60.0263 100.058C55.1126 101.965 50.3114 101.965 45.3978 100.058ZM80.1498 70.9673C88.1708 70.9673 94.6953 65.0789 94.6953 57.8405C94.6953 50.6021 88.1708 44.7138 80.1498 44.7138C72.137 44.7138 65.6181 50.6021 65.6181 57.8405C65.6181 65.0789 72.137 70.9673 80.1498 70.9673ZM80.1498 47.0549C86.7408 47.0549 92.1037 51.8938 92.1037 57.8405C92.1037 63.7873 86.7408 68.6262 80.1498 68.6262C73.5664 68.6262 68.2098 63.7873 68.2098 57.8405C68.2098 51.8938 73.5664 47.0549 80.1498 47.0549ZM81.698 60.2022C81.698 59.5449 81.1065 59.0111 80.3789 59.0111H79.9341C77.7778 59.0111 76.0239 57.4268 76.0239 55.4788C76.0239 53.8681 77.2305 52.5201 78.8648 52.0965V51.4641C78.8648 50.817 79.445 50.2934 80.1606 50.2934C80.8763 50.2934 81.4565 50.817 81.4565 51.4641V51.9453H82.994C83.7103 51.9453 84.2899 52.4688 84.2899 53.1159C84.2899 53.763 83.7103 54.2865 82.994 54.2865H79.9343C79.2073 54.2865 78.6158 54.8215 78.6158 55.4788C78.6158 56.1361 79.2073 56.6699 79.9343 56.6699C79.8045 56.6699 80.2493 56.6699 80.379 56.6699C82.536 56.6699 84.2899 58.2543 84.2899 60.2022C84.2899 61.8103 83.0872 63.1556 81.4566 63.581V64.217C81.4566 64.8641 80.8764 65.3876 80.1608 65.3876C79.4451 65.3876 78.8649 64.8641 78.8649 64.217V63.7346H77.3199C76.6043 63.7346 76.0241 63.211 76.0241 62.564C76.0241 61.9169 76.6043 61.3933 77.3199 61.3933H80.3792C81.1065 61.3935 81.698 60.8596 81.698 60.2022ZM92.7491 46.465C92.243 46.0078 92.243 45.267 92.7491 44.8098L94.6435 43.0985C95.1496 42.6413 95.9696 42.6413 96.4758 43.0985C96.9819 43.5558 96.9819 44.2965 96.4758 44.7537L94.5814 46.465C94.0753 46.9224 93.2553 46.9223 92.7491 46.465ZM67.5637 69.216C68.0698 69.6733 68.0698 70.414 67.5637 70.8713L65.67 72.5825C65.1645 73.0404 64.3432 73.0392 63.8377 72.5825C63.3315 72.1253 63.3315 71.3846 63.8377 70.9273L65.7314 69.216C66.2362 68.7588 67.0575 68.7588 67.5637 69.216ZM97.9639 57.8405C97.9639 57.1935 98.5435 56.6699 99.2598 56.6699H101.939C102.655 56.6699 103.235 57.1935 103.235 57.8405C103.235 58.4876 102.655 59.0111 101.939 59.0111H99.2598C98.5435 59.0111 97.9639 58.4876 97.9639 57.8405ZM57.0777 57.8405C57.0777 57.1935 57.6579 56.6699 58.3735 56.6699H61.0526C61.7682 56.6699 62.3484 57.1935 62.3484 57.8405C62.3484 58.4876 61.7682 59.0111 61.0526 59.0111H58.3735C57.6579 59.0111 57.0777 58.4876 57.0777 57.8405ZM96.4758 70.9273C96.9819 71.3846 96.9819 72.1253 96.4758 72.5825C95.9696 73.0398 95.1496 73.0398 94.6435 72.5825L92.7491 70.8713C92.243 70.414 92.243 69.6733 92.7491 69.216C93.2553 68.7588 94.0753 68.7588 94.5814 69.216L96.4758 70.9273ZM63.837 44.7537C63.3309 44.2965 63.3309 43.5558 63.837 43.0985C64.3432 42.6413 65.1632 42.6413 65.6693 43.0985L67.5637 44.8098C68.0698 45.267 68.0698 46.0078 67.5637 46.465C67.0575 46.9223 66.2375 46.9223 65.7314 46.465L63.837 44.7537Z"/>
</mask>
<path d="M80.3168 96.5349C85.9422 96.6131 90.0044 92.3022 90.0044 87.7121V87.2575C90.8734 85.6049 91.39 83.8183 91.39 82.1061C91.39 77.1551 87.2495 74.079 80.5832 74.079C73.9175 74.079 69.777 77.1552 69.777 82.1061C69.777 83.8247 70.2934 85.6216 71.1665 87.2815V88.0242C71.1664 92.6277 75.2075 96.409 80.3168 96.5349ZM87.4128 87.7121C87.4128 91.2291 84.2026 94.3141 80.3871 94.1938C76.6889 94.1044 73.7582 91.3661 73.7582 88.0243V85.9918C73.7582 84.724 74.8997 83.6918 76.3031 83.6918H84.8681C86.2716 83.6918 87.413 84.7241 87.413 85.9918V87.7121H87.4128ZM80.5832 76.42C83.0533 76.42 88.7984 76.9745 88.7984 82.1061C88.7984 82.3881 88.766 82.6765 88.7302 82.9651C87.7878 81.9845 86.4149 81.3504 84.868 81.3504H76.3029C74.7582 81.3504 73.3869 81.9827 72.4444 82.9612C72.4097 82.6746 72.3687 82.3864 72.3687 82.1061C72.3686 76.9745 78.113 76.42 80.5832 76.42ZM80.1567 98.1789C69.789 98.1789 61.3542 104.248 61.3542 111.707V112.495C61.3542 112.916 61.6047 113.305 62.0104 113.513C72.7744 119.03 87.4089 119.097 98.3019 113.513C98.7081 113.305 98.9588 112.916 98.9588 112.495V111.707C98.9586 103.532 89.5573 98.1789 80.1567 98.1789ZM96.3671 111.803C86.6259 116.511 73.6916 116.514 63.9459 111.803V111.707C63.9459 105.538 71.2184 100.52 80.1567 100.52C88.0961 100.52 96.3669 104.903 96.3669 111.707V111.803H96.3671ZM102.774 86.5553C102.774 88.9604 104.939 90.9163 107.601 90.9163C110.264 90.9163 112.429 88.9604 112.429 86.5553V84.828C112.429 82.4228 110.264 80.467 107.601 80.467C104.939 80.467 102.774 82.4228 102.774 84.828V86.5553ZM105.366 84.828C105.366 83.7146 106.369 82.8081 107.602 82.8081C108.834 82.8081 109.838 83.7146 109.838 84.828V86.5553C109.838 87.6686 108.834 88.5752 107.602 88.5752C106.369 88.5752 105.366 87.6686 105.366 86.5553V84.828ZM107.596 91.8012C102.112 91.8012 97.6501 95.8365 97.6501 100.796C97.6501 101.248 97.9387 101.66 98.3904 101.853C104.499 104.469 110.7 104.471 116.813 101.853C117.264 101.66 117.553 101.248 117.553 100.796C117.553 95.8365 113.086 91.8012 107.596 91.8012ZM100.286 100.058C100.694 96.735 103.817 94.1423 107.596 94.1423C111.381 94.1423 114.509 96.735 114.917 100.058C110.002 101.965 105.201 101.965 100.286 100.058ZM52.7119 90.9163C55.3737 90.9163 57.5395 88.9604 57.5395 86.5553V84.828C57.5395 82.4228 55.3737 80.467 52.7119 80.467C50.0501 80.467 47.8843 82.4228 47.8843 84.828V86.5553C47.8843 88.9604 50.0501 90.9163 52.7119 90.9163ZM50.4758 84.828C50.4758 83.7146 51.4788 82.8081 52.7119 82.8081C53.945 82.8081 54.9479 83.7146 54.9479 84.828V86.5553C54.9479 87.6686 53.945 88.5752 52.7119 88.5752C51.4788 88.5752 50.4758 87.6686 50.4758 86.5553V84.828ZM62.6627 100.795C62.6627 95.8365 58.1963 91.8011 52.7069 91.8011C47.2231 91.8011 42.7612 95.8363 42.7612 100.795C42.7612 101.248 43.0498 101.66 43.5022 101.853C49.6092 104.469 55.8109 104.471 61.9218 101.853C62.3742 101.66 62.6627 101.248 62.6627 100.795ZM45.3978 100.058C45.8046 96.735 48.9271 94.1423 52.707 94.1423C56.492 94.1423 59.6188 96.735 60.0263 100.058C55.1126 101.965 50.3114 101.965 45.3978 100.058ZM80.1498 70.9673C88.1708 70.9673 94.6953 65.0789 94.6953 57.8405C94.6953 50.6021 88.1708 44.7138 80.1498 44.7138C72.137 44.7138 65.6181 50.6021 65.6181 57.8405C65.6181 65.0789 72.137 70.9673 80.1498 70.9673ZM80.1498 47.0549C86.7408 47.0549 92.1037 51.8938 92.1037 57.8405C92.1037 63.7873 86.7408 68.6262 80.1498 68.6262C73.5664 68.6262 68.2098 63.7873 68.2098 57.8405C68.2098 51.8938 73.5664 47.0549 80.1498 47.0549ZM81.698 60.2022C81.698 59.5449 81.1065 59.0111 80.3789 59.0111H79.9341C77.7778 59.0111 76.0239 57.4268 76.0239 55.4788C76.0239 53.8681 77.2305 52.5201 78.8648 52.0965V51.4641C78.8648 50.817 79.445 50.2934 80.1606 50.2934C80.8763 50.2934 81.4565 50.817 81.4565 51.4641V51.9453H82.994C83.7103 51.9453 84.2899 52.4688 84.2899 53.1159C84.2899 53.763 83.7103 54.2865 82.994 54.2865H79.9343C79.2073 54.2865 78.6158 54.8215 78.6158 55.4788C78.6158 56.1361 79.2073 56.6699 79.9343 56.6699C79.8045 56.6699 80.2493 56.6699 80.379 56.6699C82.536 56.6699 84.2899 58.2543 84.2899 60.2022C84.2899 61.8103 83.0872 63.1556 81.4566 63.581V64.217C81.4566 64.8641 80.8764 65.3876 80.1608 65.3876C79.4451 65.3876 78.8649 64.8641 78.8649 64.217V63.7346H77.3199C76.6043 63.7346 76.0241 63.211 76.0241 62.564C76.0241 61.9169 76.6043 61.3933 77.3199 61.3933H80.3792C81.1065 61.3935 81.698 60.8596 81.698 60.2022ZM92.7491 46.465C92.243 46.0078 92.243 45.267 92.7491 44.8098L94.6435 43.0985C95.1496 42.6413 95.9696 42.6413 96.4758 43.0985C96.9819 43.5558 96.9819 44.2965 96.4758 44.7537L94.5814 46.465C94.0753 46.9224 93.2553 46.9223 92.7491 46.465ZM67.5637 69.216C68.0698 69.6733 68.0698 70.414 67.5637 70.8713L65.67 72.5825C65.1645 73.0404 64.3432 73.0392 63.8377 72.5825C63.3315 72.1253 63.3315 71.3846 63.8377 70.9273L65.7314 69.216C66.2362 68.7588 67.0575 68.7588 67.5637 69.216ZM97.9639 57.8405C97.9639 57.1935 98.5435 56.6699 99.2598 56.6699H101.939C102.655 56.6699 103.235 57.1935 103.235 57.8405C103.235 58.4876 102.655 59.0111 101.939 59.0111H99.2598C98.5435 59.0111 97.9639 58.4876 97.9639 57.8405ZM57.0777 57.8405C57.0777 57.1935 57.6579 56.6699 58.3735 56.6699H61.0526C61.7682 56.6699 62.3484 57.1935 62.3484 57.8405C62.3484 58.4876 61.7682 59.0111 61.0526 59.0111H58.3735C57.6579 59.0111 57.0777 58.4876 57.0777 57.8405ZM96.4758 70.9273C96.9819 71.3846 96.9819 72.1253 96.4758 72.5825C95.9696 73.0398 95.1496 73.0398 94.6435 72.5825L92.7491 70.8713C92.243 70.414 92.243 69.6733 92.7491 69.216C93.2553 68.7588 94.0753 68.7588 94.5814 69.216L96.4758 70.9273ZM63.837 44.7537C63.3309 44.2965 63.3309 43.5558 63.837 43.0985C64.3432 42.6413 65.1632 42.6413 65.6693 43.0985L67.5637 44.8098C68.0698 45.267 68.0698 46.0078 67.5637 46.465C67.0575 46.9223 66.2375 46.9223 65.7314 46.465L63.837 44.7537Z" fill="white" stroke="white" stroke-width="1000" mask="url(#path-2-inside-1_78_3)"/>
</g>
<defs>
<filter id="filter0_d_78_3" x="0.86377" y="0.794907" width="169.583" height="169.841" filterUnits="userSpaceOnUse" color-interpolation-filters="sRGB">
<feFlood flood-opacity="0" result="BackgroundImageFix"/>
<feColorMatrix in="SourceAlpha" type="matrix" values="0 0 0 0 0 0 0 0 0 0 0 0 0 0 0 0 0 0 127 0" result="hardAlpha"/>
<feOffset dx="5" dy="5"/>
<feGaussianBlur stdDeviation="5"/>
<feComposite in2="hardAlpha" operator="out"/>
<feColorMatrix type="matrix" values="0 0 0 0 0 0 0 0 0 0 0 0 0 0 0 0 0 0 0.25 0"/>
<feBlend mode="normal" in2="BackgroundImageFix" result="effect1_dropShadow_78_3"/>
<feBlend mode="normal" in="SourceGraphic" in2="effect1_dropShadow_78_3" result="shape"/>
</filter>
<linearGradient id="paint0_linear_78_3" x1="144.976" y1="113.306" x2="18.1003" y2="42.3172" gradientUnits="userSpaceOnUse">
<stop stop-color="#00B712"/>
<stop offset="1" stop-color="#5AFF15"/>
</linearGradient>
</defs>
</svg>
