<svg width="190" height="45" viewBox="0 0 190 45" fill="none" xmlns="http://www.w3.org/2000/svg">
<path d="M49.8653 0.942053C46.1429 2.19192 44.2041 5.19161 44.2041 9.56616C44.2041 11.566 44.6694 14.1282 45.2898 15.2531C46.3755 17.3779 49.1674 19.3776 50.951 19.3776C52.1919 19.3776 52.347 15.2531 51.1837 14.6906C50.7959 14.5032 50.4082 12.3159 50.4082 9.94112C50.4082 5.81655 50.4857 5.56657 52.5021 4.94164C53.7429 4.56668 56.0694 4.50418 58.4735 4.81665L62.4286 5.3166L62.2735 9.69115C62.1959 12.1284 61.9633 15.2531 61.6531 16.6904C60.9551 20.0026 62.2735 20.2526 65.7633 17.6278C69.4857 14.8156 70.1061 7.06642 67.0041 3.25431C64.5225 0.192129 55.3714 -0.995247 49.8653 0.942053Z" fill="white"/>
<path d="M0 23.1273V43.7501H20.1633H40.3265V38.7506V33.7512H27.9184H15.5102V18.1278V2.50439H7.7551H0V23.1273Z" fill="white"/>
<path d="M76.7755 23.1273V43.7501H83.7551H90.7347V32.4388C90.7347 26.2519 90.9673 21.3149 91.3551 21.5024C91.6653 21.6274 96.0857 26.6894 101.204 32.7513L110.433 43.7501H118.033H125.633V23.1273V2.50439H118.265H110.898L110.743 14.1282L110.51 25.8145L103.996 18.0653C100.351 13.8157 95.9306 8.56626 93.9918 6.37899L90.5796 2.50439H83.6776H76.7755V23.1273Z" fill="white"/>
<path d="M136.49 23.1273V43.7501H144.245H152V38.8756V34.0011L155.955 30.3765C158.204 28.4392 160.22 27.0019 160.608 27.3143C160.918 27.5643 163.478 31.3139 166.269 35.626L171.31 43.4377L180.616 43.6251C185.812 43.6876 190 43.6251 190 43.4377C190 43.1252 177.592 26.5644 173.171 21.065C172.163 19.7526 171.388 18.4402 171.543 18.1278C171.698 17.8153 174.722 15.0656 178.367 12.0659C182.012 9.00372 185.967 5.62907 187.208 4.50418L189.535 2.50439H179.376H169.139L160.763 10.3786L152.388 18.3153L152.155 10.3786L151.922 2.50439H144.245H136.49V23.1273Z" fill="white"/>
<path d="M53.898 9.50368C53.6653 10.0036 53.5878 16.128 53.6653 23.1273L53.898 35.9384H56.6123H59.3265V22.5023V9.06623L56.7674 8.87874C55.2163 8.75376 54.1306 9.00373 53.898 9.50368Z" fill="white"/>
<path d="M48.1592 26.6269C45.6776 28.0643 44.2041 31.1889 44.2041 35.126C44.2041 41.6253 48.3919 45 56.4572 45C64.4449 45 68.0123 42.6252 68.7878 36.7509C69.3306 32.4388 68.0123 28.5642 65.3755 26.9394C62.2735 24.9396 61.2653 25.252 61.2653 28.1267C61.2653 29.5016 61.6531 30.6265 62.0408 30.6265C62.5837 30.6265 62.8163 32.3138 62.6612 35.126L62.4286 39.688L59.3266 40.0005C57.6204 40.188 54.9837 40.188 53.5102 40.0005L50.7959 39.688L50.5633 35.376C50.4082 32.9387 50.7184 30.7515 51.1837 30.3765C52.347 29.4391 52.1919 25.627 50.951 25.627C50.4082 25.627 49.1674 26.0645 48.1592 26.6269Z" fill="white"/>
</svg>
