<svg width="171" height="171" viewBox="0 0 171 171" fill="none" xmlns="http://www.w3.org/2000/svg">
<g filter="url(#filter0_d_80_41)">
<ellipse cx="80.4889" cy="80.2455" rx="74.7917" ry="74.9203" fill="url(#paint0_linear_80_41)"/>
<path d="M90.6722 83.1649C91.055 83.8168 90.822 84.137 90.2596 84.4197C83.4368 87.8488 80.226 93.848 78.6532 100.993C78.2067 103.022 77.9725 105.078 77.9705 107.161C77.9699 107.765 77.9725 108.383 77.7527 108.962C77.3541 109.177 76.94 109.09 76.5423 109.09C70.8214 109.096 65.1004 109.094 59.3795 109.095C54.1334 109.095 48.8872 109.08 43.6413 109.11C42.7942 109.115 42.3668 108.915 42.2289 107.987C41.0516 100.06 41.2539 92.3082 45.1495 85.055C48.0346 79.6834 52.6555 76.5116 58.3914 74.84C59.7608 74.4409 60.9953 74.9443 62.199 75.4967C63.553 76.118 64.8697 76.8214 66.2226 77.4455C68.4191 78.4587 70.6213 78.4002 72.7857 77.3396C73.8497 76.8182 74.8891 76.2454 75.9326 75.6828C77.4353 74.8728 78.9137 74.688 80.5963 75.309C83.8969 76.5271 86.8759 78.1659 89.1894 80.8912C89.7662 81.5707 90.2463 82.3033 90.6722 83.1649ZM53.694 80.421C51.8387 81.6025 50.2549 83.0811 49.0219 84.9062C44.9103 90.9924 44.3521 97.8037 45.0103 104.869C45.0902 105.726 45.4513 105.912 46.2357 105.906C50.9106 105.875 55.5859 105.89 60.261 105.889C64.7668 105.889 69.2727 105.877 73.7783 105.902C74.5399 105.906 74.8137 105.68 74.8948 104.872C75.0675 103.152 75.2585 101.431 75.6543 99.7369C77.0763 93.649 79.6902 88.2674 84.6149 84.2337C85.2319 83.7284 85.8907 83.2749 86.5927 82.7507C84.916 80.9 82.9057 79.768 80.7613 78.7854C79.2921 78.1122 77.9591 77.9305 76.5999 78.9776C76.1754 79.3047 75.6571 79.5106 75.1766 79.7621C72.0691 81.3891 68.8546 82.0003 65.5029 80.6137C64.0026 79.9929 62.549 79.2491 61.1081 78.4957C60.0821 77.9593 59.1198 77.8511 58.012 78.2964C56.5606 78.8797 55.1384 79.4989 53.694 80.421Z" fill="white"/>
<path d="M100.69 87.5198C102.32 87.3936 103.735 86.7855 105.198 86.3771C106.679 85.9638 108.076 86.1467 109.443 86.7804C114.069 88.9242 116.545 92.8244 118.009 97.5036C118.989 100.638 119.374 103.87 119.331 107.16C119.321 107.948 119.076 108.238 118.279 108.237C106.019 108.22 93.7599 108.22 81.5006 108.231C80.7319 108.232 80.3585 107.956 80.4024 107.158C80.6143 103.306 81.0995 99.5085 82.5719 95.9004C84.4519 91.2935 87.4671 87.7995 92.1331 85.8621C93.3969 85.3373 94.5436 85.4138 95.7371 86.0263C97.2648 86.8103 98.7445 87.7942 100.69 87.5198ZM94.0475 88.8307C93.548 88.7279 93.1144 88.9349 92.686 89.1379C90.4914 90.178 88.716 91.7134 87.3457 93.7251C85.3688 96.6272 84.3587 99.8803 83.9362 103.335C83.7266 105.049 83.7607 105.054 85.5073 105.055C88.0133 105.056 90.5193 105.056 93.0254 105.056C100.34 105.055 107.655 105.052 114.97 105.057C115.622 105.058 116.244 105.09 116.101 104.123C115.803 102.106 115.547 100.082 114.887 98.14C113.835 95.0441 112.249 92.3353 109.484 90.4428C108.074 89.4777 106.637 89.1357 104.982 89.7638C103.687 90.2554 102.336 90.5518 100.944 90.7071C98.4381 90.9867 96.3065 90.0053 94.0475 88.8307Z" fill="white"/>
<path d="M74.5032 71.0383C67.6626 72.8597 61.191 70.2346 57.9544 64.2221C53.727 56.3691 57.6038 46.7099 65.9212 44.0132C74.2607 41.3094 82.6857 46.3853 84.2374 55.0598C85.465 61.9223 81.525 68.8296 74.5032 71.0383ZM74.0607 67.7967C78.8357 65.9652 81.5372 61.6636 81.2913 56.9438C80.9471 50.336 75.3568 46.3061 69.9674 46.4897C63.3575 46.7149 58.1931 53.2085 59.6522 59.6781C61.1362 66.2584 67.4786 69.893 74.0607 67.7967Z" fill="white"/>
<path d="M95.3905 66.1972C100.762 63.3668 107.08 66.2564 108.841 71.367C110.717 76.8135 107.855 82.3723 102.277 83.9809C97.1467 85.4605 91.7502 82.1108 90.5277 76.6875C89.604 72.5895 91.457 68.5504 95.3905 66.1972ZM95.3712 70.1968C92.836 72.905 92.8636 76.7082 95.4369 79.2374C97.9274 81.6854 101.843 81.7005 104.3 79.2715C106.823 76.7767 106.907 72.8321 104.492 70.2654C102.082 67.7042 98.1305 67.629 95.3712 70.1968Z" fill="white"/>
</g>
<defs>
<filter id="filter0_d_80_41" x="0.697266" y="0.325195" width="169.583" height="169.841" filterUnits="userSpaceOnUse" color-interpolation-filters="sRGB">
<feFlood flood-opacity="0" result="BackgroundImageFix"/>
<feColorMatrix in="SourceAlpha" type="matrix" values="0 0 0 0 0 0 0 0 0 0 0 0 0 0 0 0 0 0 127 0" result="hardAlpha"/>
<feOffset dx="5" dy="5"/>
<feGaussianBlur stdDeviation="5"/>
<feComposite in2="hardAlpha" operator="out"/>
<feColorMatrix type="matrix" values="0 0 0 0 0 0 0 0 0 0 0 0 0 0 0 0 0 0 0.25 0"/>
<feBlend mode="normal" in2="BackgroundImageFix" result="effect1_dropShadow_80_41"/>
<feBlend mode="normal" in="SourceGraphic" in2="effect1_dropShadow_80_41" result="shape"/>
</filter>
<linearGradient id="paint0_linear_80_41" x1="144.81" y1="112.836" x2="17.9338" y2="41.8475" gradientUnits="userSpaceOnUse">
<stop stop-color="#890053"/>
<stop offset="1" stop-color="#FF0099"/>
</linearGradient>
</defs>
</svg>
