<svg width="391" height="200" viewBox="0 0 391 200" fill="none" xmlns="http://www.w3.org/2000/svg">
<path d="M161.32 90V89.208C161.928 89.176 162.344 89.04 162.568 88.8C162.792 88.544 162.912 88.2 162.928 87.768C162.96 87.32 162.976 86.816 162.976 86.256V75.888C162.976 75.568 162.984 75.264 163 74.976C163.016 74.672 163.032 74.4 163.048 74.16C162.76 74.176 162.472 74.192 162.184 74.208C161.896 74.224 161.608 74.24 161.32 74.256V73.2H166.72V73.992C166.128 74.008 165.712 74.144 165.472 74.4C165.248 74.656 165.12 75 165.088 75.432C165.072 75.864 165.064 76.368 165.064 76.944V80.88H166.864L169.864 76.152C170.072 75.832 170.328 75.48 170.632 75.096C170.936 74.712 171.248 74.392 171.568 74.136C171.328 74.152 171.08 74.16 170.824 74.16C170.584 74.16 170.344 74.168 170.104 74.184V73.2H175.264V73.992C174.592 74.04 173.992 74.152 173.464 74.328C172.936 74.504 172.432 74.816 171.952 75.264C171.472 75.696 170.96 76.352 170.416 77.232L168.064 80.976C168.528 81.248 168.904 81.568 169.192 81.936C169.48 82.288 169.768 82.648 170.056 83.016L172.744 86.592C173.352 87.392 173.848 87.984 174.232 88.368C174.632 88.736 174.984 88.968 175.288 89.064C175.608 89.16 175.936 89.208 176.272 89.208V90H173.344C173.184 90 172.968 89.888 172.696 89.664C172.44 89.44 172.16 89.152 171.856 88.8C171.552 88.432 171.24 88.048 170.92 87.648L168.04 83.76C167.736 83.36 167.432 82.984 167.128 82.632C166.824 82.264 166.528 81.992 166.24 81.816L165.064 81.84V87.144C165.064 87.576 165.056 87.952 165.04 88.272C165.04 88.576 165.024 88.832 164.992 89.04C165.28 89.024 165.568 89.008 165.856 88.992C166.144 88.976 166.432 88.96 166.72 88.944V90H161.32ZM177.439 90V89.28C177.935 89.28 178.279 89.16 178.471 88.92C178.663 88.664 178.775 88.32 178.807 87.888C178.839 87.44 178.855 86.928 178.855 86.352L178.879 80.88C178.879 80.624 178.879 80.368 178.879 80.112C178.895 79.856 178.927 79.592 178.975 79.32C178.687 79.336 178.399 79.352 178.111 79.368C177.839 79.384 177.559 79.4 177.271 79.416V78.408C177.975 78.408 178.503 78.376 178.855 78.312C179.223 78.248 179.495 78.168 179.671 78.072C179.847 77.976 179.991 77.872 180.103 77.76H180.799C180.815 77.872 180.823 78 180.823 78.144C180.839 78.288 180.855 78.448 180.871 78.624C180.887 78.8 180.895 79 180.895 79.224C181.247 78.92 181.631 78.648 182.047 78.408C182.479 78.168 182.927 77.976 183.391 77.832C183.871 77.688 184.343 77.616 184.807 77.616C186.199 77.616 187.215 78.056 187.855 78.936C188.495 79.8 188.815 81.152 188.815 82.992V87.456C188.815 87.776 188.807 88.064 188.791 88.32C188.791 88.56 188.767 88.816 188.719 89.088C188.975 89.072 189.223 89.064 189.463 89.064C189.719 89.048 189.975 89.032 190.231 89.016V90H185.335V89.28C185.831 89.28 186.175 89.16 186.367 88.92C186.559 88.664 186.671 88.32 186.703 87.888C186.735 87.44 186.751 86.928 186.751 86.352V82.992C186.735 81.616 186.503 80.576 186.055 79.872C185.623 79.168 184.935 78.824 183.991 78.84C183.415 78.856 182.847 79.008 182.287 79.296C181.743 79.584 181.287 79.952 180.919 80.4C180.935 80.528 180.943 80.672 180.943 80.832C180.943 80.992 180.943 81.16 180.943 81.336L180.919 87.456C180.919 87.776 180.911 88.064 180.895 88.32C180.895 88.56 180.871 88.816 180.823 89.088C181.079 89.072 181.327 89.064 181.567 89.064C181.823 89.048 182.079 89.032 182.335 89.016V90H177.439ZM197.969 90.384C196.849 90.384 195.833 90.128 194.921 89.616C194.009 89.088 193.281 88.368 192.737 87.456C192.209 86.528 191.945 85.472 191.945 84.288C191.945 83.024 192.209 81.888 192.737 80.88C193.265 79.872 193.985 79.08 194.897 78.504C195.809 77.912 196.833 77.616 197.969 77.616C199.089 77.616 200.105 77.888 201.017 78.432C201.929 78.96 202.657 79.68 203.201 80.592C203.745 81.504 204.017 82.544 204.017 83.712C204.017 84.944 203.745 86.072 203.201 87.096C202.673 88.104 201.953 88.904 201.041 89.496C200.129 90.088 199.105 90.384 197.969 90.384ZM198.161 89.424C199.009 89.424 199.681 89.184 200.177 88.704C200.673 88.224 201.025 87.6 201.233 86.832C201.457 86.064 201.569 85.256 201.569 84.408C201.569 83.688 201.497 82.984 201.353 82.296C201.225 81.592 201.017 80.96 200.729 80.4C200.441 79.824 200.065 79.368 199.601 79.032C199.153 78.696 198.609 78.528 197.969 78.528C197.137 78.528 196.457 78.768 195.929 79.248C195.401 79.728 195.009 80.352 194.753 81.12C194.513 81.888 194.393 82.712 194.393 83.592C194.393 84.584 194.529 85.528 194.801 86.424C195.073 87.304 195.489 88.024 196.049 88.584C196.609 89.144 197.313 89.424 198.161 89.424ZM209.95 90.072L206.806 80.856C206.694 80.52 206.59 80.232 206.494 79.992C206.414 79.752 206.35 79.544 206.302 79.368C206.254 79.192 206.214 79.04 206.182 78.912L204.91 78.984V78H209.998V78.72C209.278 78.736 208.878 78.984 208.798 79.464C208.734 79.928 208.83 80.544 209.086 81.312L210.19 84.672C210.318 85.056 210.446 85.448 210.574 85.848C210.702 86.232 210.83 86.616 210.958 87C211.102 86.568 211.246 86.136 211.39 85.704C211.55 85.256 211.702 84.808 211.846 84.36L213.982 78H214.966L217.39 84.984C217.518 85.336 217.646 85.696 217.774 86.064C217.902 86.432 218.03 86.8 218.158 87.168C218.286 86.816 218.406 86.472 218.518 86.136C218.646 85.784 218.766 85.432 218.878 85.08L220.462 80.52C220.574 80.2 220.686 79.896 220.798 79.608C220.91 79.32 221.038 79.088 221.182 78.912L219.79 78.984V78H223.966V78.72C223.55 78.736 223.206 78.792 222.934 78.888C222.678 78.984 222.462 79.112 222.286 79.272C222.11 79.432 221.966 79.624 221.854 79.848C221.742 80.072 221.638 80.328 221.542 80.616L218.086 90.072H217.126L214.846 83.52C214.75 83.232 214.654 82.952 214.558 82.68C214.462 82.392 214.366 82.112 214.27 81.84C214.174 81.552 214.078 81.272 213.982 81C213.886 81.272 213.79 81.552 213.694 81.84C213.598 82.112 213.502 82.392 213.406 82.68C213.31 82.952 213.214 83.232 213.118 83.52L210.862 90.072H209.95ZM231.345 90V89.28C231.841 89.28 232.185 89.16 232.377 88.92C232.569 88.664 232.681 88.32 232.713 87.888C232.745 87.44 232.761 86.928 232.761 86.352V80.88C232.761 80.624 232.761 80.368 232.761 80.112C232.777 79.856 232.809 79.592 232.857 79.32C232.569 79.336 232.281 79.352 231.993 79.368C231.721 79.384 231.441 79.4 231.153 79.416V78.408C231.857 78.408 232.385 78.376 232.737 78.312C233.105 78.248 233.377 78.168 233.553 78.072C233.729 77.976 233.873 77.872 233.985 77.76H234.681C234.713 77.92 234.729 78.104 234.729 78.312C234.745 78.52 234.761 78.76 234.777 79.032C235.257 78.616 235.809 78.28 236.433 78.024C237.057 77.752 237.681 77.616 238.305 77.616C239.105 77.616 239.777 77.76 240.321 78.048C240.865 78.336 241.289 78.728 241.593 79.224C242.137 78.776 242.761 78.4 243.465 78.096C244.185 77.776 244.889 77.616 245.577 77.616C246.969 77.616 247.993 78.04 248.649 78.888C249.305 79.72 249.617 81.088 249.585 82.992L249.561 87.456C249.561 87.776 249.553 88.064 249.537 88.32C249.537 88.56 249.513 88.816 249.465 89.088C249.721 89.072 249.969 89.064 250.209 89.064C250.465 89.048 250.721 89.032 250.977 89.016V90H246.081V89.28C246.577 89.28 246.921 89.16 247.113 88.92C247.305 88.664 247.417 88.32 247.449 87.888C247.481 87.44 247.497 86.928 247.497 86.352V82.992C247.497 81.616 247.273 80.584 246.825 79.896C246.393 79.208 245.705 78.872 244.761 78.888C244.265 78.888 243.769 79 243.273 79.224C242.777 79.448 242.345 79.728 241.977 80.064C242.057 80.32 242.113 80.6 242.145 80.904C242.193 81.192 242.217 81.496 242.217 81.816C242.201 82.744 242.193 83.68 242.193 84.624C242.193 85.568 242.185 86.512 242.169 87.456C242.169 87.776 242.161 88.064 242.145 88.32C242.145 88.56 242.121 88.816 242.073 89.088C242.329 89.072 242.577 89.064 242.817 89.064C243.073 89.048 243.329 89.032 243.585 89.016V90H238.689V89.28C239.185 89.28 239.521 89.16 239.697 88.92C239.889 88.664 240.001 88.32 240.033 87.888C240.081 87.44 240.105 86.928 240.105 86.352L240.129 82.992C240.145 81.616 239.945 80.576 239.529 79.872C239.113 79.168 238.433 78.824 237.489 78.84C236.993 78.84 236.505 78.952 236.025 79.176C235.545 79.384 235.137 79.656 234.801 79.992C234.801 80.184 234.801 80.392 234.801 80.616C234.817 80.824 234.825 81.048 234.825 81.288V87.456C234.825 87.776 234.817 88.064 234.801 88.32C234.801 88.56 234.777 88.816 234.729 89.088C234.985 89.072 235.233 89.064 235.473 89.064C235.729 89.048 235.985 89.032 236.241 89.016V90H231.345ZM258.742 90.384C257.622 90.384 256.606 90.128 255.694 89.616C254.782 89.088 254.054 88.368 253.51 87.456C252.982 86.528 252.718 85.472 252.718 84.288C252.718 83.024 252.982 81.888 253.51 80.88C254.038 79.872 254.758 79.08 255.67 78.504C256.582 77.912 257.606 77.616 258.742 77.616C259.862 77.616 260.878 77.888 261.79 78.432C262.702 78.96 263.43 79.68 263.974 80.592C264.518 81.504 264.79 82.544 264.79 83.712C264.79 84.944 264.518 86.072 263.974 87.096C263.446 88.104 262.726 88.904 261.814 89.496C260.902 90.088 259.878 90.384 258.742 90.384ZM258.934 89.424C259.782 89.424 260.454 89.184 260.95 88.704C261.446 88.224 261.798 87.6 262.006 86.832C262.23 86.064 262.342 85.256 262.342 84.408C262.342 83.688 262.27 82.984 262.126 82.296C261.998 81.592 261.79 80.96 261.502 80.4C261.214 79.824 260.838 79.368 260.374 79.032C259.926 78.696 259.382 78.528 258.742 78.528C257.91 78.528 257.23 78.768 256.702 79.248C256.174 79.728 255.782 80.352 255.526 81.12C255.286 81.888 255.166 82.712 255.166 83.592C255.166 84.584 255.302 85.528 255.574 86.424C255.846 87.304 256.262 88.024 256.822 88.584C257.382 89.144 258.086 89.424 258.934 89.424ZM266.829 89.28C267.325 89.28 267.669 89.16 267.861 88.92C268.053 88.664 268.165 88.32 268.197 87.888C268.229 87.44 268.245 86.928 268.245 86.352V80.88C268.245 80.624 268.245 80.368 268.245 80.112C268.261 79.856 268.293 79.592 268.341 79.32C268.053 79.336 267.765 79.352 267.477 79.368C267.205 79.368 266.925 79.376 266.637 79.392V78.408H267.381C268.069 78.408 268.541 78.344 268.797 78.216C269.069 78.072 269.293 77.92 269.469 77.76H270.165C270.197 78.016 270.221 78.336 270.237 78.72C270.253 79.088 270.269 79.56 270.285 80.136C270.525 79.736 270.853 79.344 271.269 78.96C271.685 78.576 272.149 78.256 272.661 78C273.189 77.744 273.741 77.616 274.317 77.616C274.765 77.616 275.157 77.736 275.493 77.976C275.829 78.216 275.997 78.6 275.997 79.128C275.997 79.256 275.957 79.416 275.877 79.608C275.797 79.784 275.669 79.944 275.493 80.088C275.317 80.216 275.085 80.28 274.797 80.28C274.445 80.264 274.165 80.128 273.957 79.872C273.749 79.6 273.669 79.288 273.717 78.936C273.317 78.92 272.901 79.024 272.469 79.248C272.053 79.472 271.661 79.784 271.293 80.184C270.925 80.568 270.597 81.024 270.309 81.552L270.333 87.456C270.333 87.776 270.325 88.064 270.309 88.32C270.309 88.56 270.285 88.816 270.237 89.088C270.493 89.072 270.741 89.064 270.981 89.064C271.237 89.048 271.493 89.032 271.749 89.016V90H266.829V89.28ZM282.856 90.384C281.752 90.384 280.752 90.128 279.856 89.616C278.976 89.088 278.28 88.352 277.768 87.408C277.256 86.448 277 85.32 277 84.024C277 82.904 277.248 81.856 277.744 80.88C278.256 79.904 278.968 79.12 279.88 78.528C280.792 77.92 281.848 77.616 283.048 77.616C283.72 77.616 284.344 77.728 284.92 77.952C285.512 78.16 286.032 78.488 286.48 78.936C286.928 79.368 287.28 79.92 287.536 80.592C287.792 81.248 287.92 82.024 287.92 82.92L279.472 83.064C279.472 84.28 279.6 85.352 279.856 86.28C280.128 87.192 280.56 87.904 281.152 88.416C281.744 88.912 282.504 89.16 283.432 89.16C283.928 89.16 284.432 89.072 284.944 88.896C285.472 88.72 285.96 88.48 286.408 88.176C286.856 87.872 287.216 87.536 287.488 87.168L288.064 87.648C287.632 88.32 287.112 88.856 286.504 89.256C285.896 89.656 285.272 89.944 284.632 90.12C283.992 90.296 283.4 90.384 282.856 90.384ZM279.544 82.056H285.664C285.664 81.48 285.576 80.928 285.4 80.4C285.24 79.856 284.968 79.416 284.584 79.08C284.2 78.728 283.696 78.552 283.072 78.552C282.144 78.552 281.368 78.832 280.744 79.392C280.136 79.936 279.736 80.824 279.544 82.056ZM303.657 90C303.609 89.728 303.577 89.488 303.561 89.28C303.545 89.072 303.521 88.856 303.489 88.632C302.945 89.176 302.353 89.608 301.713 89.928C301.089 90.232 300.425 90.384 299.721 90.384C298.505 90.384 297.601 90.112 297.009 89.568C296.417 89.008 296.121 88.328 296.121 87.528C296.121 86.792 296.345 86.16 296.793 85.632C297.257 85.088 297.849 84.648 298.569 84.312C299.305 83.96 300.097 83.704 300.945 83.544C301.809 83.368 302.641 83.288 303.441 83.304V81.816C303.441 81.256 303.393 80.728 303.297 80.232C303.201 79.736 302.993 79.328 302.673 79.008C302.353 78.688 301.841 78.52 301.137 78.504C300.673 78.488 300.193 78.576 299.697 78.768C299.217 78.96 298.865 79.288 298.641 79.752C298.769 79.88 298.849 80.032 298.881 80.208C298.929 80.368 298.953 80.52 298.953 80.664C298.953 80.856 298.873 81.08 298.713 81.336C298.553 81.576 298.273 81.688 297.873 81.672C297.537 81.672 297.281 81.56 297.105 81.336C296.929 81.096 296.841 80.816 296.841 80.496C296.841 79.952 297.041 79.464 297.441 79.032C297.857 78.6 298.425 78.256 299.145 78C299.865 77.744 300.681 77.616 301.593 77.616C302.937 77.616 303.929 77.976 304.569 78.696C305.209 79.4 305.521 80.52 305.505 82.056C305.505 82.648 305.505 83.248 305.505 83.856C305.505 84.448 305.497 85.048 305.481 85.656C305.481 86.248 305.481 86.848 305.481 87.456C305.481 87.712 305.473 87.968 305.457 88.224C305.441 88.48 305.417 88.768 305.385 89.088C305.673 89.072 305.953 89.056 306.225 89.04C306.513 89.024 306.801 89.008 307.089 88.992V90H303.657ZM303.441 84.12C302.897 84.136 302.321 84.208 301.713 84.336C301.121 84.448 300.569 84.624 300.057 84.864C299.561 85.104 299.153 85.424 298.833 85.824C298.529 86.208 298.385 86.68 298.401 87.24C298.433 87.832 298.625 88.28 298.977 88.584C299.345 88.872 299.777 89.016 300.273 89.016C300.929 89.016 301.497 88.896 301.977 88.656C302.473 88.4 302.961 88.048 303.441 87.6C303.425 87.424 303.417 87.232 303.417 87.024C303.417 86.816 303.417 86.6 303.417 86.376C303.417 86.296 303.417 86.04 303.417 85.608C303.433 85.176 303.441 84.68 303.441 84.12ZM309.504 75C309.504 74.744 309.504 74.504 309.504 74.28C309.52 74.04 309.544 73.76 309.576 73.44C309.288 73.456 309 73.472 308.712 73.488C308.44 73.504 308.16 73.52 307.872 73.536V72.528C308.576 72.528 309.12 72.496 309.504 72.432C309.904 72.368 310.2 72.288 310.392 72.192C310.6 72.096 310.76 71.992 310.872 71.88H311.568V79.032C312.016 78.584 312.544 78.24 313.152 78C313.776 77.744 314.456 77.616 315.192 77.616C316.216 77.616 317.136 77.864 317.952 78.36C318.784 78.856 319.44 79.56 319.92 80.472C320.4 81.384 320.64 82.464 320.64 83.712C320.64 85.072 320.344 86.256 319.752 87.264C319.16 88.256 318.392 89.024 317.448 89.568C316.504 90.112 315.488 90.384 314.4 90.384C313.856 90.384 313.256 90.28 312.6 90.072C311.96 89.88 311.384 89.496 310.872 88.92L310.296 90H309.456L309.504 75ZM311.568 86.232C311.568 87.08 311.704 87.736 311.976 88.2C312.248 88.648 312.6 88.96 313.032 89.136C313.464 89.312 313.92 89.4 314.4 89.4C315.168 89.4 315.832 89.184 316.392 88.752C316.952 88.32 317.384 87.728 317.688 86.976C318.008 86.208 318.168 85.32 318.168 84.312C318.168 83.224 318.032 82.272 317.76 81.456C317.488 80.624 317.08 79.976 316.536 79.512C315.992 79.032 315.304 78.792 314.472 78.792C313.944 78.792 313.416 78.92 312.888 79.176C312.376 79.416 311.936 79.744 311.568 80.16V86.232ZM328.656 90.384C327.536 90.384 326.52 90.128 325.608 89.616C324.696 89.088 323.968 88.368 323.424 87.456C322.896 86.528 322.632 85.472 322.632 84.288C322.632 83.024 322.896 81.888 323.424 80.88C323.952 79.872 324.672 79.08 325.584 78.504C326.496 77.912 327.52 77.616 328.656 77.616C329.776 77.616 330.792 77.888 331.704 78.432C332.616 78.96 333.344 79.68 333.888 80.592C334.432 81.504 334.704 82.544 334.704 83.712C334.704 84.944 334.432 86.072 333.888 87.096C333.36 88.104 332.64 88.904 331.728 89.496C330.816 90.088 329.792 90.384 328.656 90.384ZM328.848 89.424C329.696 89.424 330.368 89.184 330.864 88.704C331.36 88.224 331.712 87.6 331.92 86.832C332.144 86.064 332.256 85.256 332.256 84.408C332.256 83.688 332.184 82.984 332.04 82.296C331.912 81.592 331.704 80.96 331.416 80.4C331.128 79.824 330.752 79.368 330.288 79.032C329.84 78.696 329.296 78.528 328.656 78.528C327.824 78.528 327.144 78.768 326.616 79.248C326.088 79.728 325.696 80.352 325.44 81.12C325.2 81.888 325.08 82.712 325.08 83.592C325.08 84.584 325.216 85.528 325.488 86.424C325.76 87.304 326.176 88.024 326.736 88.584C327.296 89.144 328 89.424 328.848 89.424ZM341.808 90.384C340.944 90.384 340.216 90.224 339.624 89.904C339.048 89.584 338.608 89.04 338.304 88.272C338.016 87.504 337.872 86.464 337.872 85.152V80.88C337.872 80.624 337.872 80.368 337.872 80.112C337.888 79.856 337.92 79.592 337.968 79.32C337.696 79.336 337.416 79.352 337.128 79.368C336.856 79.368 336.584 79.376 336.312 79.392V78.408H337.056C337.744 78.408 338.24 78.344 338.544 78.216C338.864 78.072 339.112 77.92 339.288 77.76H339.984V85.08C339.984 86.456 340.176 87.488 340.56 88.176C340.96 88.848 341.632 89.176 342.576 89.16C343.184 89.144 343.76 88.96 344.304 88.608C344.864 88.24 345.312 87.808 345.648 87.312V81.144C345.648 80.76 345.656 80.432 345.672 80.16C345.688 79.872 345.72 79.592 345.768 79.32C345.48 79.336 345.192 79.352 344.904 79.368C344.616 79.368 344.328 79.376 344.04 79.392V78.408H344.784C345.472 78.408 345.968 78.344 346.272 78.216C346.592 78.072 346.84 77.92 347.016 77.76H347.712L347.688 86.832C347.688 87.088 347.68 87.448 347.664 87.912C347.648 88.376 347.624 88.768 347.592 89.088C347.88 89.072 348.168 89.056 348.456 89.04C348.744 89.024 349.032 89.008 349.32 88.992V90H345.888C345.84 89.728 345.8 89.472 345.768 89.232C345.752 88.992 345.736 88.768 345.72 88.56C345.224 89.056 344.624 89.488 343.92 89.856C343.216 90.208 342.512 90.384 341.808 90.384ZM355.576 90.384C355.208 90.384 354.832 90.328 354.448 90.216C354.064 90.12 353.704 89.92 353.368 89.616C353.048 89.312 352.792 88.872 352.6 88.296C352.408 87.704 352.312 86.928 352.312 85.968L352.36 79.008L350.512 79.032V78C350.928 77.984 351.352 77.832 351.784 77.544C352.216 77.24 352.6 76.832 352.936 76.32C353.288 75.808 353.528 75.248 353.656 74.64H354.472V78H358.504V78.936L354.472 78.984L354.424 85.656C354.424 86.376 354.48 86.992 354.592 87.504C354.72 88 354.92 88.376 355.192 88.632C355.464 88.888 355.816 89.016 356.248 89.016C356.696 89.016 357.112 88.888 357.496 88.632C357.896 88.376 358.248 88.024 358.552 87.576L359.2 88.104C358.848 88.632 358.496 89.048 358.144 89.352C357.808 89.656 357.48 89.88 357.16 90.024C356.84 90.184 356.544 90.28 356.272 90.312C356 90.36 355.768 90.384 355.576 90.384ZM371.714 90.384C370.85 90.384 370.122 90.224 369.53 89.904C368.954 89.584 368.514 89.04 368.21 88.272C367.922 87.504 367.778 86.464 367.778 85.152V80.88C367.778 80.624 367.778 80.368 367.778 80.112C367.794 79.856 367.826 79.592 367.874 79.32C367.602 79.336 367.322 79.352 367.034 79.368C366.762 79.368 366.49 79.376 366.218 79.392V78.408H366.962C367.65 78.408 368.146 78.344 368.45 78.216C368.77 78.072 369.018 77.92 369.194 77.76H369.89V85.08C369.89 86.456 370.082 87.488 370.466 88.176C370.866 88.848 371.538 89.176 372.482 89.16C373.09 89.144 373.666 88.96 374.21 88.608C374.77 88.24 375.218 87.808 375.554 87.312V81.144C375.554 80.76 375.562 80.432 375.578 80.16C375.594 79.872 375.626 79.592 375.674 79.32C375.386 79.336 375.098 79.352 374.81 79.368C374.522 79.368 374.234 79.376 373.946 79.392V78.408H374.69C375.378 78.408 375.874 78.344 376.178 78.216C376.498 78.072 376.746 77.92 376.922 77.76H377.618L377.594 86.832C377.594 87.088 377.586 87.448 377.57 87.912C377.554 88.376 377.53 88.768 377.498 89.088C377.786 89.072 378.074 89.056 378.362 89.04C378.65 89.024 378.938 89.008 379.226 88.992V90H375.794C375.746 89.728 375.706 89.472 375.674 89.232C375.658 88.992 375.642 88.768 375.626 88.56C375.13 89.056 374.53 89.488 373.826 89.856C373.122 90.208 372.418 90.384 371.714 90.384ZM385.89 90.384C385.09 90.384 384.378 90.272 383.754 90.048C383.13 89.84 382.618 89.6 382.218 89.328L382.314 90.168H381.306L381.162 86.04H381.906C381.938 86.696 382.122 87.288 382.458 87.816C382.794 88.328 383.226 88.728 383.754 89.016C384.282 89.304 384.85 89.448 385.458 89.448C385.874 89.448 386.282 89.384 386.682 89.256C387.082 89.112 387.418 88.904 387.69 88.632C387.962 88.344 388.098 87.984 388.098 87.552C388.098 87.104 387.962 86.736 387.69 86.448C387.434 86.144 387.09 85.88 386.658 85.656C386.226 85.432 385.762 85.224 385.266 85.032C384.786 84.84 384.306 84.64 383.826 84.432C383.346 84.224 382.898 83.976 382.482 83.688C382.082 83.4 381.762 83.048 381.522 82.632C381.282 82.216 381.162 81.704 381.162 81.096C381.162 80.76 381.226 80.392 381.354 79.992C381.482 79.592 381.698 79.216 382.002 78.864C382.306 78.496 382.722 78.2 383.25 77.976C383.778 77.736 384.45 77.616 385.266 77.616C385.698 77.616 386.178 77.688 386.706 77.832C387.234 77.976 387.746 78.248 388.242 78.648L388.194 77.736H389.202V81.936H388.434C388.402 81.376 388.274 80.84 388.05 80.328C387.826 79.8 387.498 79.368 387.066 79.032C386.634 78.68 386.074 78.504 385.386 78.504C384.65 78.504 384.074 78.688 383.658 79.056C383.242 79.424 383.034 79.848 383.034 80.328C383.034 80.824 383.186 81.24 383.49 81.576C383.81 81.896 384.218 82.176 384.714 82.416C385.21 82.656 385.738 82.888 386.298 83.112C386.906 83.368 387.498 83.648 388.074 83.952C388.65 84.256 389.122 84.64 389.49 85.104C389.858 85.552 390.042 86.136 390.042 86.856C390.042 87.656 389.834 88.32 389.418 88.848C389.018 89.376 388.498 89.76 387.858 90C387.234 90.256 386.578 90.384 385.89 90.384Z" fill="white"/>
<g filter="url(#filter0_d_0_1)">
<circle cx="98" cy="80" r="40" fill="white"/>
</g>
<path d="M112.575 79.8097C113.221 80.1983 113.221 81.135 112.575 81.5236L91.5154 94.1891C90.8489 94.5899 90 94.1099 90 93.3321L90 68.0012C90 67.2235 90.8489 66.7434 91.5154 67.1443L112.575 79.8097Z" fill="#23BDEE"/>
<path d="M106.061 88.9393C105.475 88.3536 104.525 88.3536 103.939 88.9393L94.3934 98.4853C93.8076 99.0711 93.8076 100.021 94.3934 100.607C94.9792 101.192 95.9289 101.192 96.5147 100.607L105 92.1213L113.485 100.607C114.071 101.192 115.021 101.192 115.607 100.607C116.192 100.021 116.192 99.0711 115.607 98.4853L106.061 88.9393ZM202.761 102.754C186.304 126.875 162.148 134.395 142.193 130.547C122.201 126.692 106.5 111.496 106.5 90H103.5C103.5 113.21 120.511 129.421 141.625 133.493C162.775 137.571 188.119 129.538 205.239 104.444L202.761 102.754Z" fill="#E85160"/>
<defs>
<filter id="filter0_d_0_1" x="0" y="0" width="200" height="200" filterUnits="userSpaceOnUse" color-interpolation-filters="sRGB">
<feFlood flood-opacity="0" result="BackgroundImageFix"/>
<feColorMatrix in="SourceAlpha" type="matrix" values="0 0 0 0 0 0 0 0 0 0 0 0 0 0 0 0 0 0 127 0" result="hardAlpha"/>
<feOffset dx="2" dy="20"/>
<feGaussianBlur stdDeviation="30"/>
<feColorMatrix type="matrix" values="0 0 0 0 0.239854 0 0 0 0 0.607896 0 0 0 0 0.725 0 0 0 0.1 0"/>
<feBlend mode="normal" in2="BackgroundImageFix" result="effect1_dropShadow_0_1"/>
<feBlend mode="normal" in="SourceGraphic" in2="effect1_dropShadow_0_1" result="shape"/>
</filter>
</defs>
</svg>
