<svg width="45" height="45" viewBox="0 0 45 45" fill="none" xmlns="http://www.w3.org/2000/svg">
<path d="M42.1875 19.6875H25.3125V2.8125C25.3125 2.06658 25.0162 1.35121 24.4887 0.823763C23.9613 0.296317 23.2459 0 22.5 0C21.7541 0 21.0387 0.296317 20.5113 0.823763C19.9838 1.35121 19.6875 2.06658 19.6875 2.8125V19.6875H2.8125C2.06658 19.6875 1.35121 19.9838 0.823763 20.5113C0.296317 21.0387 0 21.7541 0 22.5C0 23.2459 0.296317 23.9613 0.823763 24.4887C1.35121 25.0162 2.06658 25.3125 2.8125 25.3125H19.6875V42.1875C19.6875 42.9334 19.9838 43.6488 20.5113 44.1762C21.0387 44.7037 21.7541 45 22.5 45C23.2459 45 23.9613 44.7037 24.4887 44.1762C25.0162 43.6488 25.3125 42.9334 25.3125 42.1875V25.3125H42.1875C42.9334 25.3125 43.6488 25.0162 44.1762 24.4887C44.7037 23.9613 45 23.2459 45 22.5C45 21.7541 44.7037 21.0387 44.1762 20.5113C43.6488 19.9838 42.9334 19.6875 42.1875 19.6875Z" fill="black" fill-opacity="0.8"/>
</svg>
