<svg width="171" height="171" viewBox="0 0 171 171" fill="none" xmlns="http://www.w3.org/2000/svg">
<g filter="url(#filter0_d_78_2)">
<ellipse cx="80.4889" cy="80.7152" rx="74.7917" ry="74.9203" fill="url(#paint0_linear_78_2)"/>
<path d="M116.825 102.733L104.191 90.0591L94.4734 86.0316C97.7092 81.4156 99.4427 75.9087 99.4365 70.2656C99.4365 55.0965 87.1343 42.7556 72.0129 42.7556C56.8915 42.7556 44.5894 55.0965 44.5894 70.2656C44.5894 85.4348 56.8915 97.7757 72.0129 97.7757C77.6871 97.7822 83.2221 96.0131 87.8467 92.7149L91.8512 102.437L104.485 115.112C105.295 115.925 106.257 116.57 107.316 117.009C108.374 117.449 109.509 117.676 110.655 117.676C111.801 117.676 112.935 117.45 113.994 117.01C115.053 116.57 116.015 115.925 116.825 115.112C117.635 114.299 118.278 113.335 118.717 112.273C119.155 111.211 119.381 110.072 119.381 108.923C119.381 107.773 119.155 106.635 118.717 105.573C118.278 104.511 117.636 103.546 116.825 102.733ZM49.5755 70.2656C49.5755 57.8549 59.6411 47.7574 72.0129 47.7574C84.3847 47.7574 94.4504 57.8549 94.4504 70.2656C94.4504 82.6764 84.3847 92.7739 72.0129 92.7739C59.6411 92.7739 49.5755 82.6764 49.5755 70.2656ZM113.3 111.575C112.598 112.278 111.647 112.672 110.655 112.672C109.664 112.672 108.713 112.278 108.011 111.575L96.0797 99.6064L92.3567 90.5663L101.369 94.3011L113.3 106.27C114 106.974 114.393 107.928 114.393 108.923C114.393 109.917 114 110.871 113.3 111.575Z" fill="white"/>
<path d="M71.3992 58.7386C68.1633 58.7386 65.5308 62.2395 65.5308 66.5428H67.8781C67.8781 63.9612 69.4579 61.8603 71.3992 61.8603C73.3404 61.8603 74.9202 63.9612 74.9202 66.5428C74.9202 68.2113 74.3873 68.8294 73.182 70.0625C72.7336 70.5214 72.2278 71.0396 71.743 71.6826C70.2032 73.7289 70.2196 75.7471 70.2255 75.9078V79.0295H72.5728V75.8938C72.5728 75.8563 72.5998 74.9557 73.4026 73.8897C73.7782 73.3902 74.2031 72.9563 74.6127 72.5364C75.8568 71.2628 77.2675 69.8205 77.2675 66.5428C77.2675 62.2395 74.635 58.7386 71.3992 58.7386ZM70.2255 80.5903H72.5728V83.712H70.2255V80.5903Z" fill="white"/>
</g>
<defs>
<filter id="filter0_d_78_2" x="0.697266" y="0.794907" width="169.583" height="169.841" filterUnits="userSpaceOnUse" color-interpolation-filters="sRGB">
<feFlood flood-opacity="0" result="BackgroundImageFix"/>
<feColorMatrix in="SourceAlpha" type="matrix" values="0 0 0 0 0 0 0 0 0 0 0 0 0 0 0 0 0 0 127 0" result="hardAlpha"/>
<feOffset dx="5" dy="5"/>
<feGaussianBlur stdDeviation="5"/>
<feComposite in2="hardAlpha" operator="out"/>
<feColorMatrix type="matrix" values="0 0 0 0 0 0 0 0 0 0 0 0 0 0 0 0 0 0 0.25 0"/>
<feBlend mode="normal" in2="BackgroundImageFix" result="effect1_dropShadow_78_2"/>
<feBlend mode="normal" in="SourceGraphic" in2="effect1_dropShadow_78_2" result="shape"/>
</filter>
<linearGradient id="paint0_linear_78_2" x1="144.81" y1="113.306" x2="17.9338" y2="42.3172" gradientUnits="userSpaceOnUse">
<stop stop-color="#B25A59"/>
<stop offset="1" stop-color="#EE5060"/>
</linearGradient>
</defs>
</svg>
