<svg width="171" height="171" viewBox="0 0 171 171" fill="none" xmlns="http://www.w3.org/2000/svg">
<g filter="url(#filter0_d_80_42)">
<ellipse cx="80.6554" cy="80.4857" rx="74.7917" ry="74.9203" fill="url(#paint0_linear_80_42)"/>
<path d="M82.152 75.2181L78.3587 86.9116H66.0835L76.0144 94.139L72.2188 105.831L82.152 98.6061L92.0829 105.831L88.2873 94.139L98.2182 86.9116H85.943L82.152 75.2181ZM85.4686 92.9181L87.516 99.2348L82.152 95.3296L76.7834 99.2348L78.8355 92.9181L73.4692 89.0128H80.1023L82.152 82.6961L84.2018 89.0128H90.8325L85.4686 92.9181Z" fill="white"/>
<path d="M96.4755 73.1017V62.9196C96.4755 62.4935 96.2429 62.1353 95.9134 61.9128L107.394 44.399H85.3829L81.6854 49.9549L77.9879 44.399H55.9746L67.454 61.9117C67.2845 62.0201 67.1446 62.1689 67.0467 62.3448C66.9488 62.5207 66.896 62.7182 66.893 62.9196V73.1017C61.6564 77.3956 58.3118 83.9172 58.3118 91.2242C58.3118 104.154 68.7768 114.637 81.6842 114.637C82.4801 114.637 83.2677 114.596 84.0425 114.517C95.8421 113.334 105.057 103.358 105.057 91.2242C105.057 83.9172 101.712 77.3956 96.4755 73.1017ZM91.9985 45.5697H99.3935L89.0804 61.0676L85.3829 55.5118L91.9985 45.5697ZM92.778 66.6235L93.915 64.9167C93.9758 65.063 94.0108 65.2222 94.0108 65.3896V70.3285C94.0081 70.6369 93.8833 70.9317 93.6638 71.1479C90.1579 69.0431 86.0689 67.8116 81.6842 67.8116C77.4624 67.8125 73.3208 68.9664 69.7047 71.1491C69.4851 70.9324 69.3603 70.6373 69.3576 70.3285V65.3896C69.3576 65.2222 69.3927 65.0618 69.4535 64.9167L70.5905 66.6246L92.778 66.6235ZM63.975 45.5697H71.37L84.6035 65.4528H77.2084L63.975 45.5697ZM81.6842 111.125C70.7132 111.125 61.8177 102.215 61.8177 91.2242C61.8177 80.2332 70.7132 71.3235 81.6842 71.3235C92.6552 71.3235 101.551 80.2332 101.551 91.2242C101.551 102.215 92.6552 111.125 81.6842 111.125Z" fill="white"/>
</g>
<defs>
<filter id="filter0_d_80_42" x="0.86377" y="0.565369" width="169.583" height="169.841" filterUnits="userSpaceOnUse" color-interpolation-filters="sRGB">
<feFlood flood-opacity="0" result="BackgroundImageFix"/>
<feColorMatrix in="SourceAlpha" type="matrix" values="0 0 0 0 0 0 0 0 0 0 0 0 0 0 0 0 0 0 127 0" result="hardAlpha"/>
<feOffset dx="5" dy="5"/>
<feGaussianBlur stdDeviation="5"/>
<feComposite in2="hardAlpha" operator="out"/>
<feColorMatrix type="matrix" values="0 0 0 0 0 0 0 0 0 0 0 0 0 0 0 0 0 0 0.25 0"/>
<feBlend mode="normal" in2="BackgroundImageFix" result="effect1_dropShadow_80_42"/>
<feBlend mode="normal" in="SourceGraphic" in2="effect1_dropShadow_80_42" result="shape"/>
</filter>
<linearGradient id="paint0_linear_80_42" x1="144.976" y1="113.076" x2="18.1003" y2="42.0877" gradientUnits="userSpaceOnUse">
<stop stop-color="#4A00E0"/>
<stop offset="1" stop-color="#8E2DE2"/>
</linearGradient>
</defs>
</svg>
