<svg width="26" height="8" viewBox="0 0 26 8" fill="none" xmlns="http://www.w3.org/2000/svg">
<path d="M12.8663 7.37891C11.9435 7.37891 11.0584 7.00234 10.4059 6.33204C9.75332 5.66175 9.38672 4.75263 9.38672 3.80469C9.38672 2.85675 9.75332 1.94763 10.4059 1.27733C11.0584 0.607037 11.9435 0.230469 12.8663 0.230469C13.7892 0.230469 14.6743 0.607037 15.3268 1.27733C15.9794 1.94763 16.346 2.85675 16.346 3.80469C16.346 4.75263 15.9794 5.66175 15.3268 6.33204C14.6743 7.00234 13.7892 7.37891 12.8663 7.37891Z" fill="#222222"/>
<path d="M3.58607 7.37891C2.66321 7.37891 1.77816 7.00234 1.1256 6.33204C0.473047 5.66175 0.106445 4.75263 0.106445 3.80469C0.106445 2.85675 0.473047 1.94763 1.1256 1.27733C1.77816 0.607037 2.66321 0.230469 3.58607 0.230469C4.50892 0.230469 5.39398 0.607037 6.04653 1.27733C6.69909 1.94763 7.06569 2.85675 7.06569 3.80469C7.06569 4.75263 6.69909 5.66175 6.04653 6.33204C5.39398 7.00234 4.50892 7.37891 3.58607 7.37891Z" fill="#222222"/>
<path d="M22.1422 7.37891C21.2194 7.37891 20.3343 7.00234 19.6818 6.33204C19.0292 5.66175 18.6626 4.75263 18.6626 3.80469C18.6626 2.85675 19.0292 1.94763 19.6818 1.27733C20.3343 0.607037 21.2194 0.230469 22.1422 0.230469C23.0651 0.230469 23.9501 0.607037 24.6027 1.27733C25.2552 1.94763 25.6218 2.85675 25.6218 3.80469C25.6218 4.75263 25.2552 5.66175 24.6027 6.33204C23.9501 7.00234 23.0651 7.37891 22.1422 7.37891Z" fill="#222222"/>
</svg>
